<svg xmlns="http://www.w3.org/2000/svg" version="1.1" xmlns:xlink="http://www.w3.org/1999/xlink" xmlns:svgjs="http://svgjs.dev/svgjs" width="1500" height="1500" viewBox="0 0 1500 1500"><rect width="1500" height="1500" fill="#ffffff"></rect><g transform="matrix(0.6666666666666666,0,0,0.6666666666666666,249.39393939393938,611.6592868147222)"><svg viewBox="0 0 396 110" data-background-color="#ffffff" preserveAspectRatio="xMidYMid meet" height="416" width="1500" xmlns="http://www.w3.org/2000/svg" xmlns:xlink="http://www.w3.org/1999/xlink"><g id="tight-bounds" transform="matrix(1,0,0,1,0.2400000000000091,-0.12928443372393872)"><svg viewBox="0 0 395.52 110.25856886744788" height="110.25856886744788" width="395.52"><g><svg viewBox="0 0 572.087132500013 159.4799466447549" height="110.25856886744788" width="395.52"><g transform="matrix(1,0,0,1,0,22.04100565061374)"><svg viewBox="0 0 395.52 115.39793534352742" height="115.39793534352742" width="395.52"><g id="textblocktransform"><svg viewBox="0 0 395.52 115.39793534352742" height="115.39793534352742" width="395.52" id="textblock"><g><svg viewBox="0 0 395.52 72.3800210748156" height="72.3800210748156" width="395.52"><g transform="matrix(1,0,0,1,0,0)"><svg width="395.52" viewBox="3.1 -39.65 284.67999999999995 52.1" height="72.3800210748156" data-palette-color="#000000"><path d="M14.5 0.55Q11.9 0.55 9.85 0.1 7.8-0.35 5.35-1.1L5.35-1.1Q3.85-1.65 3.1-1.7L3.1-1.7 3.5-10.75 6.7-10.75 7.55-4.25Q8.4-3.45 10.33-2.83 12.25-2.2 14.55-2.2L14.55-2.2Q18.35-2.2 20.33-3.9 22.3-5.6 22.3-8.6L22.3-8.6Q22.3-10.55 21.23-11.95 20.15-13.35 18.38-14.35 16.6-15.35 13.5-16.7L13.5-16.7Q10.7-17.95 8.63-19.25 6.55-20.55 5.03-22.73 3.5-24.9 3.5-27.95L3.5-27.95Q3.5-30.7 4.98-32.88 6.45-35.05 9.22-36.3 12-37.55 15.7-37.55L15.7-37.55Q18-37.55 19.78-37.2 21.55-36.85 23.8-36.25L23.8-36.25Q24.8-35.9 25.5-35.8L25.5-35.8 25.2-27.4 22.15-27.4 21.15-33.55Q20.65-34.05 19.07-34.5 17.5-34.95 15.65-34.95L15.65-34.95Q12.2-34.95 10.43-33.5 8.65-32.05 8.65-29.3L8.65-29.3Q8.65-27.3 9.73-25.95 10.8-24.6 12.4-23.65 14-22.7 17.5-21.05L17.5-21.05Q20.75-19.5 22.8-18.25 24.85-17 26.33-14.98 27.8-12.95 27.8-10.15L27.8-10.15Q27.8-7.5 26.33-5.05 24.85-2.6 21.83-1.03 18.8 0.55 14.5 0.55L14.5 0.55ZM31.95-13.95Q31.95-18.45 33.8-21.75 35.65-25.05 38.67-26.78 41.7-28.5 45.15-28.5L45.15-28.5Q51.45-28.5 54.62-24.5 57.8-20.5 57.8-14L57.8-14Q57.8-9.45 55.95-6.15 54.1-2.85 51.07-1.15 48.05 0.55 44.6 0.55L44.6 0.55Q38.3 0.55 35.12-3.45 31.95-7.45 31.95-13.95L31.95-13.95ZM44.9-2.3Q48.35-2.3 50.2-5.15 52.05-8 52.05-13.6L52.05-13.6Q52.05-19.15 50.35-22.4 48.65-25.65 44.9-25.65L44.9-25.65Q41.45-25.65 39.57-22.8 37.7-19.95 37.7-14.35L37.7-14.35Q37.7-8.8 39.45-5.55 41.2-2.3 44.9-2.3L44.9-2.3ZM74.65 0.55Q68.59 0.55 65.42-3.4 62.25-7.35 62.25-13.95L62.25-13.95Q62.25-18.3 63.9-21.6 65.55-24.9 68.52-26.7 71.5-28.5 75.3-28.5L75.3-28.5Q79.95-28.5 82.52-25.93 85.09-23.35 85.25-18.55L85.25-18.55Q85.25-15.5 84.9-13.9L84.9-13.9 67.7-13.9Q67.8-8.95 70-5.93 72.2-2.9 76.25-2.9L76.25-2.9Q78.25-2.9 80.42-3.63 82.59-4.35 83.8-5.35L83.8-5.35 84.75-3.15Q83.3-1.65 80.45-0.55 77.59 0.55 74.65 0.55L74.65 0.55ZM67.75-16.55L79.75-16.55Q79.9-17.6 79.9-18.7L79.9-18.7Q79.84-21.95 78.52-23.83 77.2-25.7 74.34-25.7L74.34-25.7Q71.45-25.7 69.72-23.6 68-21.5 67.75-16.55L67.75-16.55ZM105.64-3L105.64-34.05 101.64-34.65 101.64-37.15 110.94-37.15 127.59-12.75 130.39-7.45 130.39-34.05 126.04-34.65 126.04-37.15 137.84-37.15 137.84-34.65 133.84-34.05 133.84 0 129.89 0 112.89-24.95 109.04-31.55 109.04-2.95 113.79-2.45 113.79 0 101.64 0 101.64-2.45 105.64-3ZM141.34-7.5Q141.34-12.2 146.04-14.43 150.74-16.65 157.94-16.8L157.94-16.8 157.94-18.2Q157.94-20.55 157.44-21.9 156.94-23.25 155.71-23.88 154.49-24.5 152.24-24.5L152.24-24.5Q149.69-24.5 147.66-23.78 145.64-23.05 143.64-22L143.64-22 142.39-24.6Q143.04-25.15 144.79-26.05 146.54-26.95 148.84-27.65 151.14-28.35 153.44-28.35L153.44-28.35Q156.99-28.35 159.06-27.38 161.14-26.4 162.04-24.25 162.94-22.1 162.94-18.5L162.94-18.5 162.94-2.45 165.89-2.45 165.89-0.25Q164.89 0 163.36 0.25 161.84 0.5 160.69 0.5L160.69 0.5Q159.29 0.5 158.79 0.08 158.29-0.35 158.29-1.8L158.29-1.8 158.29-3.45Q156.79-1.95 154.61-0.7 152.44 0.55 149.69 0.55L149.69 0.55Q146.09 0.55 143.71-1.53 141.34-3.6 141.34-7.5L141.34-7.5ZM151.84-2.85Q153.14-2.85 154.84-3.65 156.54-4.45 157.94-5.55L157.94-5.55 157.94-14.15Q152.49-14.15 149.71-12.48 146.94-10.8 146.94-8.1L146.94-8.1Q146.94-5.4 148.26-4.13 149.59-2.85 151.84-2.85L151.84-2.85ZM173.44 12.45Q172.59 12.45 171.76 12.35 170.94 12.25 170.59 12.05L170.59 12.05 170.59 7.7Q170.89 7.9 171.76 8 172.64 8.1 173.44 8.1L173.44 8.1Q175.84 8.1 177.66 6.43 179.49 4.75 181.19 0L181.19 0 178.79 0 169.29-24.75 166.99-25.4 166.99-27.75 179.04-27.75 179.04-25.4 175.19-24.8 180.09-10.05 182.39-2.75 184.54-10.1 188.99-24.8 185.64-25.4 185.64-27.75 195.69-27.75 195.69-25.4 193.19-24.8Q185.84-2.3 184.54 0.75L184.54 0.75Q182.84 5.05 181.44 7.48 180.04 9.9 178.14 11.18 176.24 12.45 173.44 12.45L173.44 12.45ZM214.13-2.95L214.13-34.05 210.08-34.65 210.08-37.15 224.43-37.15 224.43-34.65 219.48-34.05 219.48-2.95 232.38-3.4 235.33-11.8 238.38-11.35 236.63 0 209.98 0 209.98-2.45 214.13-2.95ZM247.43-32.75Q245.83-32.75 245.03-33.65 244.23-34.55 244.23-35.95L244.23-35.95Q244.23-37.55 245.2-38.6 246.18-39.65 247.88-39.65L247.88-39.65Q249.58-39.65 250.38-38.75 251.18-37.85 251.18-36.45L251.18-36.45Q251.18-34.75 250.2-33.75 249.23-32.75 247.48-32.75L247.48-32.75 247.43-32.75ZM245.43-2.9L245.43-23.9 241.63-24.8 241.63-27.45 249.38-28.4 249.48-28.4 250.63-27.5 250.63-2.85 254.63-2.45 254.63 0 241.38 0 241.38-2.45 245.43-2.9ZM261.18-2.9L261.18-23.9 257.58-24.8 257.58-27.5 264.73-28.4 264.88-28.4 265.93-27.5 265.93-25.4 265.88-24.2Q267.68-25.8 270.63-27.1 273.58-28.4 276.28-28.4L276.28-28.4Q279.43-28.4 281.15-27.2 282.88-26 283.58-23.53 284.28-21.05 284.28-16.85L284.28-16.85 284.28-2.85 287.78-2.5 287.78 0 275.93 0 275.93-2.45 279.03-2.85 279.03-16.9Q279.03-19.85 278.63-21.53 278.23-23.2 277.13-24.03 276.03-24.85 273.93-24.85L273.93-24.85Q272.13-24.85 270.08-23.95 268.03-23.05 266.43-21.85L266.43-21.85 266.43-2.9 269.83-2.45 269.83 0 258.03 0 258.03-2.45 261.18-2.9Z" opacity="1" transform="matrix(1,0,0,1,0,0)" fill="#000000" class="wordmark-text-0" data-fill-palette-color="primary" id="text-0"></path></svg></g></svg></g><g transform="matrix(1,0,0,1,163.310208,89.46720693007377)"><svg viewBox="0 0 232.209792 25.93072841345365" height="25.93072841345365" width="232.209792"><g transform="matrix(1,0,0,1,0,0)"><svg width="232.209792" viewBox="2.4 -40.95 487.55 54.45" height="25.93072841345365" data-palette-color="#89939e"><path d="M6.55-2.95L6.55-34.05 2.5-34.65 2.5-37.15 16.85-37.15 16.85-34.65 11.9-34.05 11.9-2.95 24.8-3.4 27.75-11.8 30.8-11.35 29.05 0 2.4 0 2.4-2.45 6.55-2.95ZM46.25 0.55Q40.2 0.55 37.02-3.4 33.85-7.35 33.85-13.95L33.85-13.95Q33.85-18.3 35.5-21.6 37.15-24.9 40.12-26.7 43.1-28.5 46.9-28.5L46.9-28.5Q51.55-28.5 54.12-25.93 56.7-23.35 56.85-18.55L56.85-18.55Q56.85-15.5 56.5-13.9L56.5-13.9 39.3-13.9Q39.4-8.95 41.6-5.93 43.8-2.9 47.85-2.9L47.85-2.9Q49.85-2.9 52.02-3.63 54.2-4.35 55.4-5.35L55.4-5.35 56.35-3.15Q54.9-1.65 52.05-0.55 49.2 0.55 46.25 0.55L46.25 0.55ZM39.35-16.55L51.35-16.55Q51.5-17.6 51.5-18.7L51.5-18.7Q51.45-21.95 50.12-23.83 48.8-25.7 45.95-25.7L45.95-25.7Q43.05-25.7 41.32-23.6 39.6-21.5 39.35-16.55L39.35-16.55ZM58.85-25.4L58.85-27.75 70.45-27.75 70.45-25.4 66.9-24.75 71.95-10.35 74.05-4 75.85-10.15 80.9-24.75 77.5-25.4 77.5-27.75 87.65-27.75 87.65-25.4 85.05-24.75 75.4 0.4 71.15 0.4 61.1-24.75 58.85-25.4ZM101.84 0.55Q95.79 0.55 92.62-3.4 89.44-7.35 89.44-13.95L89.44-13.95Q89.44-18.3 91.09-21.6 92.74-24.9 95.72-26.7 98.69-28.5 102.49-28.5L102.49-28.5Q107.14-28.5 109.72-25.93 112.29-23.35 112.44-18.55L112.44-18.55Q112.44-15.5 112.09-13.9L112.09-13.9 94.89-13.9Q94.99-8.95 97.19-5.93 99.39-2.9 103.44-2.9L103.44-2.9Q105.44-2.9 107.62-3.63 109.79-4.35 110.99-5.35L110.99-5.35 111.94-3.15Q110.49-1.65 107.64-0.55 104.79 0.55 101.84 0.55L101.84 0.55ZM94.94-16.55L106.94-16.55Q107.09-17.6 107.09-18.7L107.09-18.7Q107.04-21.95 105.72-23.83 104.39-25.7 101.54-25.7L101.54-25.7Q98.64-25.7 96.92-23.6 95.19-21.5 94.94-16.55L94.94-16.55ZM116.84 0L116.84-2.45 120.59-2.75 120.59-23.9 116.99-24.8 116.99-27.5 123.89-28.4 123.99-28.4 125.09-27.5 125.09-26.6 124.94-22.7 125.09-22.7Q125.59-23.55 126.89-24.9 128.19-26.25 130.24-27.38 132.29-28.5 134.69-28.5L134.69-28.5Q135.69-28.5 136.34-28.25L136.34-28.25 136.34-22.65Q135.99-22.9 135.22-23.13 134.44-23.35 133.49-23.35L133.49-23.35Q129.34-23.35 125.79-20.8L125.79-20.8 125.79-2.8 132.14-2.4 132.14 0 116.84 0ZM139.64-7.5Q139.64-12.2 144.34-14.43 149.04-16.65 156.24-16.8L156.24-16.8 156.24-18.2Q156.24-20.55 155.74-21.9 155.24-23.25 154.01-23.88 152.79-24.5 150.54-24.5L150.54-24.5Q147.99-24.5 145.96-23.78 143.94-23.05 141.94-22L141.94-22 140.69-24.6Q141.34-25.15 143.09-26.05 144.84-26.95 147.14-27.65 149.44-28.35 151.74-28.35L151.74-28.35Q155.29-28.35 157.36-27.38 159.44-26.4 160.34-24.25 161.24-22.1 161.24-18.5L161.24-18.5 161.24-2.45 164.19-2.45 164.19-0.25Q163.19 0 161.66 0.25 160.14 0.5 158.99 0.5L158.99 0.5Q157.59 0.5 157.09 0.08 156.59-0.35 156.59-1.8L156.59-1.8 156.59-3.45Q155.09-1.95 152.91-0.7 150.74 0.55 147.99 0.55L147.99 0.55Q144.39 0.55 142.01-1.53 139.64-3.6 139.64-7.5L139.64-7.5ZM150.14-2.85Q151.44-2.85 153.14-3.65 154.84-4.45 156.24-5.55L156.24-5.55 156.24-14.15Q150.79-14.15 148.01-12.48 145.24-10.8 145.24-8.1L145.24-8.1Q145.24-5.4 146.56-4.13 147.89-2.85 150.14-2.85L150.14-2.85ZM179.64 13.5Q173.24 13.5 170.36 11.48 167.49 9.45 167.49 5.9L167.49 5.9Q167.49 3.7 168.86 1.85 170.24 0 172.14-0.95L172.14-0.95Q169.84-2.25 169.84-5.15L169.84-5.15Q169.84-6.95 170.89-8.55 171.94-10.15 173.64-11L173.64-11Q171.14-12.1 169.81-14.15 168.49-16.2 168.49-19L168.49-19Q168.49-21.9 170.11-24.05 171.74-26.2 174.41-27.35 177.09-28.5 180.09-28.5L180.09-28.5Q185.14-28.5 187.99-26.4L187.99-26.4Q188.74-27.15 190.29-27.85 191.84-28.55 193.59-28.55L193.59-28.55 195.29-28.55 195.29-24.15 189.79-24.15Q190.99-22.3 190.99-19.85L190.99-19.85Q190.99-16.9 189.51-14.63 188.04-12.35 185.41-11.1 182.79-9.85 179.49-9.85L179.49-9.85Q177.34-9.85 175.64-10.3L175.64-10.3Q174.94-9.6 174.49-8.75 174.04-7.9 174.04-7.1L174.04-7.1Q174.04-5.3 175.24-4.63 176.44-3.95 179.54-3.95L179.54-3.95 185.19-3.95Q190.04-3.95 192.39-2.1 194.74-0.25 194.74 3.15L194.74 3.15Q194.74 6 192.69 8.38 190.64 10.75 187.16 12.13 183.69 13.5 179.64 13.5L179.64 13.5ZM179.99-12.6Q185.69-12.6 185.69-19.35L185.69-19.35Q185.69-22.7 184.21-24.28 182.74-25.85 179.79-25.85L179.79-25.85Q177.04-25.85 175.44-24.33 173.84-22.8 173.84-19.45L173.84-19.45Q173.84-16.3 175.36-14.45 176.89-12.6 179.99-12.6L179.99-12.6ZM180.09 10.6Q182.54 10.6 184.71 9.88 186.89 9.15 188.24 7.73 189.59 6.3 189.59 4.4L189.59 4.4Q189.59 2.15 188.39 1.13 187.19 0.1 183.74 0.1L183.74 0.1 177.84 0.1Q175.84 0.1 174.69-0.15L174.69-0.15Q172.64 2.1 172.64 4.9L172.64 4.9Q172.64 7.7 174.34 9.15 176.04 10.6 180.09 10.6L180.09 10.6ZM210.33 0.55Q204.28 0.55 201.11-3.4 197.93-7.35 197.93-13.95L197.93-13.95Q197.93-18.3 199.58-21.6 201.23-24.9 204.21-26.7 207.18-28.5 210.98-28.5L210.98-28.5Q215.63-28.5 218.21-25.93 220.78-23.35 220.93-18.55L220.93-18.55Q220.93-15.5 220.58-13.9L220.58-13.9 203.38-13.9Q203.48-8.95 205.68-5.93 207.88-2.9 211.93-2.9L211.93-2.9Q213.93-2.9 216.11-3.63 218.28-4.35 219.48-5.35L219.48-5.35 220.43-3.15Q218.98-1.65 216.13-0.55 213.28 0.55 210.33 0.55L210.33 0.55ZM203.43-16.55L215.43-16.55Q215.58-17.6 215.58-18.7L215.58-18.7Q215.53-21.95 214.21-23.83 212.88-25.7 210.03-25.7L210.03-25.7Q207.13-25.7 205.41-23.6 203.68-21.5 203.43-16.55L203.43-16.55ZM240.73-2.9L240.73-37.3 236.68-37.85 236.68-40 244.73-40.95 244.83-40.95 245.93-40.2 245.93-2.85 250.18-2.45 250.18 0 236.68 0 236.68-2.45 240.73-2.9ZM259.63-32.75Q258.03-32.75 257.23-33.65 256.43-34.55 256.43-35.95L256.43-35.95Q256.43-37.55 257.4-38.6 258.38-39.65 260.08-39.65L260.08-39.65Q261.78-39.65 262.58-38.75 263.38-37.85 263.38-36.45L263.38-36.45Q263.38-34.75 262.4-33.75 261.43-32.75 259.68-32.75L259.68-32.75 259.63-32.75ZM257.63-2.9L257.63-23.9 253.83-24.8 253.83-27.45 261.58-28.4 261.68-28.4 262.83-27.5 262.83-2.85 266.83-2.45 266.83 0 253.58 0 253.58-2.45 257.63-2.9ZM273.02-2.9L273.02-37.3 269.12-37.85 269.12-40 277.07-40.95 277.12-40.95 278.22-40.2 278.22-15.75 278.12-12.8 289.67-24.75 285.92-25.45 285.92-27.75 298.02-27.75 298.02-25.45 294.07-24.75 286.72-17.6 296.22-2.85 299.32-2.45 299.32 0 287.17 0 287.17-2.45 290.32-2.9 283.27-14.5 278.12-9.4 278.22-6.85 278.22-2.9 281.77-2.45 281.77 0 269.87 0 269.87-2.45 273.02-2.9ZM312.67 0.55Q306.62 0.55 303.44-3.4 300.27-7.35 300.27-13.95L300.27-13.95Q300.27-18.3 301.92-21.6 303.57-24.9 306.55-26.7 309.52-28.5 313.32-28.5L313.32-28.5Q317.97-28.5 320.55-25.93 323.12-23.35 323.27-18.55L323.27-18.55Q323.27-15.5 322.92-13.9L322.92-13.9 305.72-13.9Q305.82-8.95 308.02-5.93 310.22-2.9 314.27-2.9L314.27-2.9Q316.27-2.9 318.44-3.63 320.62-4.35 321.82-5.35L321.82-5.35 322.77-3.15Q321.32-1.65 318.47-0.55 315.62 0.55 312.67 0.55L312.67 0.55ZM305.77-16.55L317.77-16.55Q317.92-17.6 317.92-18.7L317.92-18.7Q317.87-21.95 316.55-23.83 315.22-25.7 312.37-25.7L312.37-25.7Q309.47-25.7 307.75-23.6 306.02-21.5 305.77-16.55L305.77-16.55ZM339.42-7.5Q339.42-12.2 344.12-14.43 348.81-16.65 356.02-16.8L356.02-16.8 356.02-18.2Q356.02-20.55 355.52-21.9 355.02-23.25 353.79-23.88 352.56-24.5 350.31-24.5L350.31-24.5Q347.77-24.5 345.74-23.78 343.72-23.05 341.72-22L341.72-22 340.47-24.6Q341.12-25.15 342.87-26.05 344.62-26.95 346.92-27.65 349.22-28.35 351.52-28.35L351.52-28.35Q355.06-28.35 357.14-27.38 359.22-26.4 360.12-24.25 361.02-22.1 361.02-18.5L361.02-18.5 361.02-2.45 363.97-2.45 363.97-0.25Q362.97 0 361.44 0.25 359.92 0.5 358.77 0.5L358.77 0.5Q357.37 0.5 356.87 0.08 356.37-0.35 356.37-1.8L356.37-1.8 356.37-3.45Q354.87-1.95 352.69-0.7 350.52 0.55 347.77 0.55L347.77 0.55Q344.17 0.55 341.79-1.53 339.42-3.6 339.42-7.5L339.42-7.5ZM349.92-2.85Q351.22-2.85 352.92-3.65 354.62-4.45 356.02-5.55L356.02-5.55 356.02-14.15Q350.56-14.15 347.79-12.48 345.02-10.8 345.02-8.1L345.02-8.1Q345.02-5.4 346.34-4.13 347.67-2.85 349.92-2.85L349.92-2.85ZM383.51-2.95L383.51-34.05 379.41-34.65 379.41-37.15 386.16-37.15Q387.86-37.15 390.46-37.35L390.46-37.35Q392.86-37.55 394.01-37.55L394.01-37.55Q400.91-37.55 403.89-35.4 406.86-33.25 406.86-29.1L406.86-29.1Q406.86-25.55 404.81-23 402.76-20.45 399.21-19.8L399.21-19.8Q404.01-19.9 406.76-17.55 409.51-15.2 409.51-11.15L409.51-11.15Q409.51-6.1 405.94-2.9 402.36 0.3 394.11 0.3L394.11 0.3Q392.31 0.3 390.66 0.15L390.66 0.15Q386.76 0 386.01 0L386.01 0 379.36 0 379.36-2.45 383.51-2.95ZM388.81-20.75Q389.51-20.7 391.66-20.7L391.66-20.7 394.41-20.7Q397.91-20.7 399.71-22.65 401.51-24.6 401.51-28.2L401.51-28.2Q401.51-31.7 399.71-33.33 397.91-34.95 393.56-34.95L393.56-34.95Q391.76-34.95 389.86-34.75L389.86-34.75 388.81-34.65 388.81-20.75ZM388.81-2.8Q389.96-2.4 394.01-2.4L394.01-2.4Q399.06-2.4 401.34-4.48 403.61-6.55 403.61-10.45L403.61-10.45Q403.61-14.3 401.64-16.05 399.66-17.8 395.26-17.8L395.26-17.8Q390.16-17.8 388.81-17.7L388.81-17.7 388.81-2.8ZM413.56-13.95Q413.56-18.45 415.41-21.75 417.26-25.05 420.28-26.78 423.31-28.5 426.76-28.5L426.76-28.5Q433.06-28.5 436.23-24.5 439.41-20.5 439.41-14L439.41-14Q439.41-9.45 437.56-6.15 435.71-2.85 432.68-1.15 429.66 0.55 426.21 0.55L426.21 0.55Q419.91 0.55 416.73-3.45 413.56-7.45 413.56-13.95L413.56-13.95ZM426.51-2.3Q429.96-2.3 431.81-5.15 433.66-8 433.66-13.6L433.66-13.6Q433.66-19.15 431.96-22.4 430.26-25.65 426.51-25.65L426.51-25.65Q423.06-25.65 421.18-22.8 419.31-19.95 419.31-14.35L419.31-14.35Q419.31-8.8 421.06-5.55 422.81-2.3 426.51-2.3L426.51-2.3ZM447.71-7.9L448.61-4Q449.11-3.25 450.73-2.65 452.36-2.05 454.16-2.05L454.16-2.05Q457.01-2.05 458.36-3.15 459.71-4.25 459.71-6.2L459.71-6.2Q459.71-7.55 458.86-8.55 458.01-9.55 456.48-10.33 454.96-11.1 452.11-12.2L452.11-12.2Q448.26-13.65 446.48-15.68 444.71-17.7 444.71-21L444.71-21Q444.71-23.2 446.03-24.85 447.36-26.5 449.68-27.43 452.01-28.35 454.86-28.35L454.86-28.35Q457.16-28.35 458.88-28 460.61-27.65 461.66-27.3 462.71-26.95 463.06-26.85L463.06-26.85 463.06-20.65 460.01-20.65 459.01-24.35Q458.71-24.95 457.41-25.38 456.11-25.8 454.51-25.8L454.51-25.8Q452.26-25.8 450.88-24.8 449.51-23.8 449.51-22.1L449.51-22.1Q449.51-20.6 450.23-19.63 450.96-18.65 452.06-18.05 453.16-17.45 455.06-16.65L455.06-16.65 456.06-16.25Q458.86-15.15 460.61-14.15 462.36-13.15 463.53-11.53 464.71-9.9 464.71-7.55L464.71-7.55Q464.71-3.85 461.83-1.65 458.96 0.55 453.96 0.55L453.96 0.55Q451.51 0.55 448.83-0.13 446.16-0.8 444.46-1.5L444.46-1.5 444.46-7.9 447.71-7.9ZM472.95-7.9L473.85-4Q474.35-3.25 475.98-2.65 477.6-2.05 479.4-2.05L479.4-2.05Q482.25-2.05 483.6-3.15 484.95-4.25 484.95-6.2L484.95-6.2Q484.95-7.55 484.1-8.55 483.25-9.55 481.73-10.33 480.2-11.1 477.35-12.2L477.35-12.2Q473.5-13.65 471.73-15.68 469.95-17.7 469.95-21L469.95-21Q469.95-23.2 471.28-24.85 472.6-26.5 474.93-27.43 477.25-28.35 480.1-28.35L480.1-28.35Q482.4-28.35 484.13-28 485.85-27.65 486.9-27.3 487.95-26.95 488.3-26.85L488.3-26.85 488.3-20.65 485.25-20.65 484.25-24.35Q483.95-24.95 482.65-25.38 481.35-25.8 479.75-25.8L479.75-25.8Q477.5-25.8 476.13-24.8 474.75-23.8 474.75-22.1L474.75-22.1Q474.75-20.6 475.48-19.63 476.2-18.65 477.3-18.05 478.4-17.45 480.3-16.65L480.3-16.65 481.3-16.25Q484.1-15.15 485.85-14.15 487.6-13.15 488.78-11.53 489.95-9.9 489.95-7.55L489.95-7.55Q489.95-3.85 487.08-1.65 484.2 0.55 479.2 0.55L479.2 0.55Q476.75 0.55 474.08-0.13 471.4-0.8 469.7-1.5L469.7-1.5 469.7-7.9 472.95-7.9Z" opacity="1" transform="matrix(1,0,0,1,0,0)" fill="#000000" class="slogan-text-1" data-fill-palette-color="secondary" id="text-1"></path></svg></g></svg></g></svg></g></svg></g><g transform="matrix(1,0,0,1,412.60718585525814,0)"><svg viewBox="0 0 159.4799466447549 159.4799466447549" height="159.4799466447549" width="159.4799466447549"><g data-palette-color="#000000"><rect width="43.591185416233" height="159.4799466447549" fill="#000000" stroke="transparent" data-fill-palette-color="accent" x="0" fill-opacity="1"></rect><rect width="43.591185416233" height="159.4799466447549" fill="#000000" stroke="transparent" data-fill-palette-color="accent" x="53.1599822149183" fill-opacity="0.75"></rect><rect width="43.591185416233" height="159.4799466447549" fill="#000000" stroke="transparent" data-fill-palette-color="accent" x="106.3199644298366" fill-opacity="0.5"></rect></g></svg></g></svg></g><defs></defs></svg><rect width="395.52" height="110.25856886744788" fill="none" stroke="none" visibility="hidden"></rect></g></svg></g></svg>