<svg width="16" height="18" viewBox="0 0 16 18" fill="none" xmlns="http://www.w3.org/2000/svg">
<path d="M11.4351 11.441H10.7124L10.4563 11.1757C11.3528 10.0555 11.8925 8.60117 11.8925 7.01909C11.8925 3.49136 9.23042 0.631836 5.94625 0.631836C2.66209 0.631836 0 3.49136 0 7.01909C0 10.5468 2.66209 13.4064 5.94625 13.4064C7.4191 13.4064 8.77301 12.8266 9.81589 11.8636L10.0629 12.1387V12.915L14.6369 17.8185L16 16.3543L11.4351 11.441ZM5.94625 11.441C3.66838 11.441 1.82962 9.4659 1.82962 7.01909C1.82962 4.57228 3.66838 2.59715 5.94625 2.59715C8.22413 2.59715 10.0629 4.57228 10.0629 7.01909C10.0629 9.4659 8.22413 11.441 5.94625 11.441Z" fill="#0E0B0B"/>
</svg>
